<svg xmlns="http://www.w3.org/2000/svg"  viewBox="0 0 64 64" width="64px" height="64px"><path fill="#ed7899" d="M43.534,20L5.621,20c-1.336,0-2.006,1.616-1.061,2.561l8.268,8.268	c0.75,0.75,1.768,1.172,2.828,1.172l28.173,0c2.089,0,3.955,1.528,4.152,3.609C48.208,37.995,46.339,40,44,40H25.621	c-1.336,0-2.006,1.616-1.061,2.561l8.268,8.268c0.75,0.75,1.768,1.172,2.828,1.172H44c9.089,0,16.437-7.625,15.98-16.812	C59.552,26.596,52.137,20,43.534,20z"/><path fill="#f283a5" d="M53.402,23.002C51.884,21.105,49.585,20,47.155,20H5.766c-0.777,0-1.257,0.848-0.857,1.514	l1.002,1.13C7.24,24.143,9.146,25,11.148,25h41.294C53.473,25,54.046,23.807,53.402,23.002L53.402,23.002z"/><path fill="#8d6c9f" d="M44,53h-8.343c-1.336,0-2.592-0.521-3.536-1.465l-8.268-8.268c-0.718-0.718-0.931-1.787-0.542-2.725	S24.606,39,25.621,39H44c0.844,0,1.653-0.357,2.221-0.981c0.575-0.633,0.847-1.455,0.766-2.315C46.842,34.188,45.455,33,43.829,33	H15.657c-1.336,0-2.592-0.521-3.536-1.465l-8.268-8.268c-0.718-0.718-0.931-1.787-0.542-2.725S4.606,19,5.621,19h37.912	c9.333,0,16.995,7.089,17.445,16.139c0.233,4.698-1.424,9.163-4.666,12.57C53.066,51.121,48.693,53,44,53z M25.621,41	c-0.302,0-0.424,0.216-0.462,0.309s-0.104,0.332,0.108,0.545l8.268,8.268C34.102,50.688,34.855,51,35.657,51H44	c4.141,0,7.998-1.658,10.863-4.669c2.861-3.008,4.323-6.947,4.117-11.093C58.584,27.254,51.799,21,43.533,21H5.621	c-0.302,0-0.424,0.216-0.462,0.309s-0.104,0.332,0.108,0.545l8.268,8.268C14.102,30.688,14.855,31,15.657,31h28.172	c2.646,0,4.908,1.982,5.147,4.514c0.134,1.408-0.331,2.812-1.276,3.851C46.754,40.403,45.405,41,44,41H25.621z"/><path fill="#8d6c9f" d="M7,16c-0.553,0-1-0.447-1-1v-2c0-0.553,0.447-1,1-1s1,0.447,1,1v2C8,15.553,7.553,16,7,16z"/><path fill="#8d6c9f" d="M12,16c-0.553,0-1-0.447-1-1v-2c0-0.553,0.447-1,1-1s1,0.447,1,1v2C13,15.553,12.553,16,12,16z"/><path fill="#8d6c9f" d="M17,16c-0.553,0-1-0.447-1-1v-2c0-0.553,0.447-1,1-1s1,0.447,1,1v2C18,15.553,17.553,16,17,16z"/><path fill="#8d6c9f" d="M22,16c-0.553,0-1-0.447-1-1v-2c0-0.553,0.447-1,1-1s1,0.447,1,1v2C23,15.553,22.553,16,22,16z"/><path fill="#8d6c9f" d="M27,16c-0.553,0-1-0.447-1-1v-2c0-0.553,0.447-1,1-1s1,0.447,1,1v2C28,15.553,27.553,16,27,16z"/><path fill="#8d6c9f" d="M32,16c-0.553,0-1-0.447-1-1v-2c0-0.553,0.447-1,1-1s1,0.447,1,1v2C33,15.553,32.553,16,32,16z"/><path fill="#8d6c9f" d="M37,16c-0.553,0-1-0.447-1-1v-2c0-0.553,0.447-1,1-1s1,0.447,1,1v2C38,15.553,37.553,16,37,16z"/><path fill="#8d6c9f" d="M42,16c-0.553,0-1-0.447-1-1v-2c0-0.553,0.447-1,1-1s1,0.447,1,1v2C43,15.553,42.553,16,42,16z"/></svg>